<?xml version="1.0" encoding="utf-8"?>
<!-- Generator: Adobe Illustrator 17.0.0, SVG Export Plug-In . SVG Version: 6.00 Build 0)  -->
<!DOCTYPE svg PUBLIC "-//W3C//DTD SVG 1.1//EN" "http://www.w3.org/Graphics/SVG/1.1/DTD/svg11.dtd">
<svg version="1.1" id="Layer_1" xmlns="http://www.w3.org/2000/svg" xmlns:xlink="http://www.w3.org/1999/xlink" x="0px" y="0px"
	 width="290px" height="42px" viewBox="0 -0.5 290 42" enable-background="new 0 -0.5 290 42" xml:space="preserve">
<title>Group</title>
<desc>Created with Sketch.</desc>
<g>
	<path fill="#F9B617" d="M26.643,35.567c-0.372,0.241-0.872,0.528-1.48,0.869c-0.613,0.341-1.349,0.66-2.21,0.963
		c-0.872,0.308-1.862,0.57-2.986,0.792c-1.13,0.218-2.359,0.329-3.724,0.329c-1.836,0-3.611-0.281-5.327-0.864
		c-1.717-0.58-3.218-1.434-4.511-2.571c-1.288-1.14-2.331-2.562-3.11-4.286c-0.78-1.716-1.176-3.71-1.176-5.99
		c0-2.169,0.392-4.118,1.156-5.833c0.758-1.714,1.792-3.153,3.107-4.309c1.304-1.155,2.836-2.039,4.577-2.645
		c1.756-0.62,3.625-0.92,5.585-0.92c1.804,0,3.49,0.225,5.069,0.688c1.584,0.454,2.764,1.073,3.55,1.856
		c0.372,0.373,0.664,0.775,0.892,1.2c0.222,0.428,0.33,0.928,0.33,1.496c0,0.585-0.104,1.111-0.299,1.588
		c-0.206,0.477-0.469,0.898-0.768,1.274c-0.31,0.372-0.621,0.709-0.946,0.996c-0.324,0.288-0.598,0.496-0.837,0.634
		c-0.617-0.608-1.47-1.178-2.555-1.706c-1.082-0.526-2.377-0.79-3.868-0.79c-0.891,0-1.733,0.136-2.527,0.409
		c-0.798,0.27-1.493,0.681-2.087,1.222c-0.595,0.544-1.075,1.224-1.43,2.039c-0.36,0.817-0.541,1.748-0.541,2.8
		c0,1.12,0.181,2.083,0.541,2.881c0.355,0.797,0.834,1.458,1.43,1.964c0.594,0.515,1.296,0.886,2.112,1.12
		c0.816,0.238,1.681,0.362,2.594,0.362c0.784,0,1.509-0.078,2.172-0.231c0.657-0.156,1.255-0.336,1.758-0.538
		c0.504-0.199,0.929-0.398,1.27-0.585c0.341-0.183,0.56-0.333,0.661-0.432L26.643,35.567z"/>
	<path fill="#F9B617" d="M29.203,21.496c0-1.664,0.276-3.141,0.83-4.436c0.571-1.287,1.345-2.375,2.322-3.259
		c0.992-0.881,2.178-1.558,3.571-2.012c1.399-0.462,2.925-0.688,4.586-0.688c2.044,0,3.632,0.22,4.775,0.66
		c1.133,0.451,1.954,0.928,2.463,1.44c0.313,0.343,0.545,0.702,0.714,1.078c0.169,0.382,0.256,0.826,0.256,1.333
		c0,0.513-0.078,0.99-0.228,1.441c-0.154,0.444-0.338,0.837-0.562,1.18c-0.219,0.345-0.434,0.629-0.631,0.867
		c-0.209,0.239-0.362,0.408-0.46,0.515c-0.583-0.276-1.277-0.528-2.092-0.767c-0.817-0.24-1.717-0.359-2.702-0.359
		c-1.29,0-2.39,0.373-3.29,1.118c-0.903,0.75-1.348,1.988-1.348,3.714v14.489h-8.203V21.496z"/>
	<path fill="#F9B617" d="M58.061,28.224c0.056,0.407,0.235,0.81,0.524,1.201c0.288,0.392,0.695,0.76,1.224,1.094
		c0.524,0.342,1.198,0.617,2.021,0.816c0.813,0.207,1.793,0.307,2.951,0.307c0.882,0,1.714-0.076,2.497-0.229
		c0.784-0.152,1.463-0.316,2.04-0.483c0.58-0.167,1.058-0.342,1.43-0.507c0.372-0.175,0.591-0.285,0.66-0.361l2.854,5.706
		c-0.273,0.171-0.718,0.412-1.35,0.716c-0.633,0.303-1.415,0.613-2.372,0.915c-0.953,0.308-2.067,0.571-3.337,0.793
		c-1.276,0.218-2.676,0.329-4.203,0.329c-1.905,0-3.697-0.3-5.356-0.91c-1.67-0.615-3.119-1.503-4.357-2.677
		c-1.24-1.175-2.217-2.612-2.936-4.311c-0.712-1.697-1.071-3.637-1.071-5.814c0-2.037,0.359-3.907,1.071-5.608
		c0.719-1.691,1.705-3.143,2.959-4.331c1.251-1.186,2.738-2.116,4.436-2.779c1.701-0.661,3.536-0.992,5.508-0.992
		c1.827,0,3.477,0.244,4.94,0.741c1.457,0.493,2.694,1.157,3.7,2.013c0.998,0.848,1.764,1.819,2.291,2.904
		c0.526,1.088,0.789,2.211,0.789,3.364c0,1.256-0.222,2.385-0.66,3.392c-0.443,0.998-1.238,1.848-2.377,2.547
		c-1.137,0.696-2.682,1.234-4.632,1.604c-1.957,0.377-4.443,0.559-7.471,0.559H58.061z M57.646,22.926
		c2.282,0,4.041-0.085,5.302-0.258c1.257-0.169,2.191-0.386,2.803-0.66c0.611-0.276,0.981-0.575,1.118-0.924
		c0.135-0.33,0.211-0.676,0.211-1.012c0-0.715-0.329-1.336-0.975-1.861c-0.642-0.529-1.615-0.791-2.907-0.791
		c-0.92,0-1.712,0.163-2.396,0.485c-0.68,0.323-1.248,0.735-1.705,1.242c-0.463,0.514-0.81,1.103-1.037,1.764
		C57.812,21.574,57.677,22.245,57.646,22.926"/>
	<path fill="#F9B617" d="M105.624,23.638c0,2.175-0.227,4.064-0.667,5.661c-0.444,1.598-1.067,2.939-1.885,4.025
		c-1.293,1.698-2.937,2.994-4.949,3.871c-2.002,0.886-4.227,1.324-6.672,1.324c-2.01,0-3.867-0.329-5.588-0.989
		c-1.718-0.663-3.205-1.592-4.456-2.783c-1.257-1.188-2.247-2.629-2.96-4.327c-0.711-1.704-1.07-3.572-1.07-5.614
		c0-2.071,0.327-3.947,0.994-5.629c0.663-1.682,1.566-3.122,2.707-4.31c1.135-1.186,2.466-2.116,4.001-2.776
		c1.529-0.665,3.158-0.992,4.891-0.992c1.901,0,3.479,0.314,4.713,0.941c1.241,0.627,2.168,1.247,2.779,1.861V3.864
		c0-1.329,0.389-2.265,1.177-2.812c0.774-0.539,1.813-0.811,3.103-0.811c0.917,0,1.747,0.111,2.479,0.329
		c0.729,0.223,1.195,0.366,1.402,0.435V23.638z M91.653,30.975c1.702,0,3.099-0.535,4.203-1.626c1.107-1.09,1.659-2.584,1.659-4.491
		c0-0.879-0.143-1.705-0.44-2.469c-0.284-0.762-0.69-1.425-1.219-1.989c-0.524-0.558-1.144-1.003-1.857-1.324
		c-0.716-0.32-1.497-0.486-2.346-0.486c-1.702,0-3.1,0.588-4.204,1.76c-1.109,1.17-1.651,2.672-1.651,4.508
		c0,1.84,0.542,3.316,1.651,4.44C88.553,30.422,89.951,30.975,91.653,30.975"/>
	<path fill="#F9B617" d="M109.094,4.831c0-1.296,0.434-2.379,1.298-3.263c0.863-0.884,1.944-1.33,3.237-1.33s2.384,0.447,3.263,1.33
		c0.885,0.884,1.326,1.967,1.326,3.263c0,1.287-0.441,2.364-1.326,3.231c-0.879,0.875-1.97,1.302-3.263,1.302
		s-2.374-0.427-3.237-1.302C109.528,7.194,109.094,6.118,109.094,4.831 M109.549,15.428c0-1.32,0.398-2.255,1.178-2.802
		c0.775-0.545,1.817-0.813,3.112-0.813c0.915,0,1.746,0.108,2.497,0.33c0.742,0.218,1.224,0.366,1.421,0.433v25.234h-8.208V15.428z"
		/>
	<path fill="#E52265" d="M147.17,35.617c-0.371,0.239-0.866,0.528-1.473,0.866c-0.617,0.342-1.356,0.663-2.227,0.97
		c-0.856,0.305-1.856,0.568-2.973,0.789c-1.125,0.218-2.368,0.333-3.725,0.333c-1.834,0-3.615-0.288-5.324-0.872
		c-1.716-0.571-3.218-1.428-4.517-2.57c-1.291-1.138-2.33-2.562-3.1-4.286c-0.79-1.706-1.177-3.708-1.177-5.988
		c0-2.175,0.385-4.118,1.145-5.833c0.77-1.719,1.794-3.152,3.113-4.306c1.307-1.156,2.833-2.042,4.586-2.654
		c1.745-0.611,3.611-0.918,5.579-0.918c1.802,0,3.497,0.228,5.079,0.689c1.579,0.455,2.754,1.085,3.541,1.858
		c0.371,0.376,0.666,0.778,0.885,1.199c0.228,0.427,0.333,0.928,0.333,1.508c0,0.578-0.096,1.103-0.305,1.579
		c-0.198,0.476-0.463,0.905-0.764,1.274c-0.304,0.373-0.617,0.703-0.938,0.996c-0.327,0.285-0.608,0.498-0.849,0.632
		c-0.608-0.611-1.459-1.174-2.546-1.709c-1.081-0.523-2.374-0.786-3.87-0.786c-0.885,0-1.728,0.136-2.529,0.404
		c-0.8,0.278-1.495,0.683-2.086,1.225c-0.595,0.545-1.076,1.225-1.431,2.043c-0.355,0.811-0.535,1.747-0.535,2.799
		c0,1.121,0.18,2.084,0.535,2.883c0.355,0.797,0.836,1.453,1.431,1.96c0.591,0.507,1.294,0.886,2.115,1.12
		c0.817,0.241,1.685,0.36,2.597,0.36c0.779,0,1.502-0.075,2.172-0.232c0.663-0.152,1.251-0.327,1.76-0.529
		c0.507-0.212,0.929-0.404,1.273-0.587c0.339-0.19,0.56-0.336,0.661-0.438L147.17,35.617z"/>
	<path fill="#E52265" d="M158.1,25.726c0,3.535,1.6,5.3,4.801,5.3c3.192,0,4.788-1.764,4.788-5.3V15.48
		c0-1.323,0.392-2.258,1.176-2.803c0.78-0.539,1.816-0.814,3.109-0.814c0.916,0,1.752,0.108,2.494,0.331
		c0.748,0.22,1.23,0.368,1.436,0.432v14.629c0,1.902-0.334,3.557-1,4.967c-0.665,1.412-1.568,2.587-2.729,3.522
		c-1.153,0.937-2.531,1.642-4.126,2.117c-1.592,0.474-3.313,0.713-5.148,0.713c-1.839,0-3.557-0.239-5.152-0.713
		c-1.594-0.476-2.971-1.18-4.126-2.117c-1.153-0.935-2.066-2.11-2.729-3.522c-0.667-1.41-0.99-3.064-0.99-4.967V15.48
		c0-1.323,0.387-2.258,1.17-2.803c0.781-0.539,1.818-0.814,3.114-0.814c0.912,0,1.746,0.108,2.493,0.331
		c0.751,0.22,1.222,0.368,1.418,0.432V25.726z"/>
	<path fill="#E52265" d="M179.842,24.858c0-1.973,0.371-3.785,1.123-5.452c0.743-1.663,1.772-3.111,3.081-4.336
		c1.306-1.216,2.827-2.181,4.567-2.875c1.734-0.7,3.599-1.043,5.608-1.043c1.966,0,3.828,0.343,5.582,1.043
		c1.743,0.695,3.271,1.659,4.587,2.875c1.306,1.225,2.332,2.674,3.08,4.336c0.748,1.668,1.123,3.48,1.123,5.452
		c0,1.976-0.375,3.792-1.123,5.457c-0.748,1.666-1.774,3.107-3.08,4.329c-1.317,1.225-2.845,2.186-4.587,2.887
		c-1.754,0.693-3.616,1.043-5.582,1.043c-2.009,0-3.874-0.35-5.608-1.043c-1.74-0.701-3.261-1.662-4.567-2.887
		c-1.309-1.222-2.338-2.663-3.081-4.329C180.213,28.65,179.842,26.834,179.842,24.858 M194.222,31.181
		c0.845,0,1.636-0.162,2.366-0.483c0.732-0.318,1.368-0.754,1.911-1.31c0.546-0.562,0.963-1.222,1.248-1.995
		c0.291-0.778,0.44-1.618,0.44-2.535c0-0.905-0.148-1.751-0.44-2.526c-0.285-0.773-0.702-1.443-1.248-1.998
		c-0.543-0.553-1.179-0.994-1.911-1.316c-0.731-0.323-1.521-0.481-2.366-0.481c-0.886,0-1.689,0.158-2.39,0.481
		c-0.725,0.321-1.35,0.762-1.892,1.316c-0.548,0.555-0.962,1.225-1.25,1.998c-0.29,0.775-0.439,1.621-0.439,2.526
		c0,0.918,0.149,1.757,0.439,2.535c0.288,0.772,0.702,1.433,1.25,1.995c0.542,0.556,1.167,0.992,1.892,1.31
		C192.533,31.019,193.335,31.181,194.222,31.181"/>
	<path fill="#E52265" d="M211.694,7.833c0-1.326,0.383-2.261,1.169-2.806c0.78-0.538,1.815-0.811,3.11-0.811
		c0.909,0,1.743,0.11,2.491,0.332c0.751,0.222,1.225,0.366,1.429,0.429v6.886h5.866c1.529,0,2.615,0.304,3.261,0.915
		c0.639,0.611,0.968,1.531,0.968,2.756c0,0.882-0.137,1.708-0.417,2.47c-0.264,0.762-0.468,1.27-0.604,1.505h-9.074v8.04
		c0,0.784,0.126,1.406,0.361,1.866c0.235,0.462,0.534,0.827,0.891,1.105c0.356,0.269,0.761,0.448,1.225,0.539
		c0.458,0.082,0.923,0.124,1.397,0.124c0.955,0,1.818-0.147,2.607-0.432c0.781-0.291,1.338-0.536,1.676-0.744l3.213,5.581
		c-0.308,0.271-0.744,0.571-1.324,0.908c-0.578,0.344-1.267,0.664-2.091,0.969c-0.816,0.301-1.734,0.565-2.754,0.779
		c-1.017,0.218-2.089,0.333-3.213,0.333c-3.192,0-5.691-0.844-7.49-2.523c-1.798-1.685-2.695-3.932-2.695-6.758V7.833z"/>
	<path fill="#E52265" d="M258.052,37.702c-0.206,0.072-0.67,0.152-1.377,0.236c-0.708,0.082-1.606,0.179-2.673,0.281
		c-1.065,0.098-2.289,0.183-3.662,0.251c-1.367,0.07-2.822,0.104-4.347,0.104c-2.58,0-4.719-0.234-6.408-0.692
		c-1.699-0.458-3.059-1.075-4.066-1.859c-1.026-0.78-1.734-1.69-2.139-2.731c-0.412-1.032-0.614-2.127-0.614-3.287
		c0-3.123,1.001-5.357,3.004-6.7c2.006-1.339,5.187-2.015,9.537-2.015c1.091,0,1.999,0.017,2.728,0.052
		c0.732,0.036,1.332,0.087,1.812,0.154c0-1.189-0.49-2.126-1.459-2.803c-0.964-0.679-2.574-1.021-4.818-1.021
		c-1.05,0-1.978,0.056-2.778,0.176c-0.803,0.126-1.476,0.267-2.037,0.434c-0.558,0.173-1.015,0.342-1.35,0.514
		c-0.338,0.172-0.577,0.306-0.709,0.405c-0.07-0.067-0.206-0.2-0.409-0.405c-0.203-0.205-0.411-0.469-0.615-0.791
		c-0.202-0.321-0.39-0.688-0.564-1.095c-0.164-0.407-0.251-0.852-0.251-1.326c0-2.956,3.021-4.432,9.074-4.432
		c1.968,0,3.819,0.176,5.547,0.536c1.725,0.355,3.225,0.966,4.495,1.836c1.27,0.863,2.258,2.01,2.987,3.439
		c0.73,1.425,1.093,3.21,1.093,5.347V37.702z M249.894,27.05c-0.306-0.065-0.754-0.127-1.342-0.176
		c-0.594-0.047-1.478-0.076-2.663-0.076c-1.009,0-1.837,0.083-2.478,0.252c-0.65,0.171-1.149,0.403-1.503,0.69
		c-0.353,0.285-0.599,0.623-0.732,0.996c-0.13,0.372-0.2,0.761-0.2,1.172c0,0.3,0.048,0.631,0.151,0.964
		c0.104,0.343,0.324,0.65,0.656,0.916c0.34,0.278,0.85,0.508,1.52,0.695c0.67,0.188,1.577,0.277,2.685,0.277
		c0.886,0,1.689-0.025,2.433-0.076c0.748-0.046,1.241-0.107,1.473-0.178V27.05z"/>
	<path fill="#E52265" d="M264.222,29.908c0.281,0.2,0.722,0.448,1.355,0.739c0.625,0.287,1.377,0.553,2.241,0.813
		c0.87,0.253,1.857,0.48,2.956,0.661c1.113,0.188,2.273,0.278,3.492,0.278c1.395,0,2.453-0.128,3.164-0.374
		c0.713-0.258,1.068-0.709,1.068-1.358c0-0.673-0.293-1.143-0.891-1.401c-0.595-0.252-1.518-0.461-2.779-0.637l-2.642-0.301
		c-1.336-0.17-2.606-0.421-3.829-0.738c-1.227-0.329-2.305-0.799-3.237-1.431c-0.942-0.633-1.676-1.433-2.215-2.417
		c-0.551-0.989-0.819-2.233-0.819-3.727c0-1.256,0.229-2.42,0.689-3.487c0.455-1.077,1.174-2.006,2.166-2.806
		c0.986-0.798,2.242-1.427,3.775-1.884c1.529-0.466,3.339-0.689,5.451-0.689c2.144,0,3.983,0.133,5.53,0.405
		c1.543,0.268,2.88,0.699,4.001,1.277c0.649,0.34,1.169,0.755,1.561,1.245c0.384,0.494,0.586,1.1,0.586,1.812
		c0,0.542-0.114,1.023-0.336,1.449c-0.219,0.427-0.471,0.794-0.765,1.1c-0.287,0.305-0.562,0.539-0.816,0.708
		c-0.256,0.176-0.414,0.274-0.481,0.311c-0.099-0.1-0.382-0.291-0.842-0.565c-0.457-0.27-1.075-0.532-1.839-0.783
		c-0.761-0.262-1.678-0.487-2.756-0.69c-1.066-0.209-2.28-0.308-3.63-0.308c-1.532,0-2.599,0.179-3.192,0.538
		c-0.596,0.355-0.895,0.825-0.895,1.401s0.268,0.983,0.814,1.221c0.55,0.241,1.362,0.445,2.446,0.616l4.65,0.66
		c1.145,0.166,2.257,0.42,3.328,0.735c1.075,0.326,2.025,0.794,2.858,1.407c0.833,0.615,1.496,1.393,1.987,2.346
		c0.493,0.951,0.745,2.109,0.745,3.463c0,2.857-1.099,5.081-3.262,6.674c-2.185,1.603-5.184,2.403-9.029,2.403
		c-2.008,0-3.78-0.141-5.327-0.411c-1.541-0.272-2.878-0.585-4-0.938c-1.121-0.357-2.032-0.736-2.726-1.123
		c-0.699-0.392-1.184-0.692-1.459-0.897L264.222,29.908z"/>
	<path fill="#E52265" d="M278.138,11.978c0,1.138-0.933,2.071-2.068,2.071h-3.707c-1.14,0-2.061-0.933-2.061-2.071v-1.761
		c0-1.13,0.921-2.06,2.061-2.06h3.707c1.136,0,2.068,0.929,2.068,2.06V11.978z"/>
	<path fill="#E52265" d="M278.138,39.435c0,1.136-0.933,2.065-2.068,2.065h-3.707c-1.14,0-2.061-0.929-2.061-2.065v-1.763
		c0-1.133,0.921-2.065,2.061-2.065h3.707c1.136,0,2.068,0.932,2.068,2.065V39.435z"/>
</g>
</svg>
